<svg id="arrow" width="378" height="372" viewBox="0 0 378 372" fill="none" xmlns="http://www.w3.org/2000/svg">
	<path fillb="white" d="M159.215 22.6176C110.863 23.6735 56.9816 30.8281 21.3596 66.8128C-8.12326 97.3099 4.56602 143.866 28.9453 172.716C61.8583 211.387 110.777 223.186 159.099 230.699C198.247 236.344 237.402 240.153 276.546 247.022C296.729 250.765 317.518 256.346 335.227 267.424C363.319 284.658 355.849 320.74 329.481 335.336C309.859 346.283 284.157 345.581 262.727 348.566C237.012 351.537 211.302 353.283 184.984 353.803C128.065 354.827 66.8783 350.941 14.3322 326.277C10.6667 324.428 8.20157 329.315 11.253 331.774C50.3223 360.063 102.937 365.143 150.052 367.756C197.779 370.371 247.364 366.872 295.124 359.695C332.477 353.705 365.574 339.745 367.558 297.524C368.894 265.704 334.679 249.06 309.617 240.405C223.426 211.339 95.4186 239.656 35.1178 157.436C6.49089 118.168 18.2515 80.266 58.1126 57.1492C84.4819 41.9404 119.984 40.2285 149.978 38.4973C205.68 35.6321 261.346 43.1708 317.036 43.9775C327.439 44.0139 327.495 28.102 317.092 28.0656C264.463 27.2696 211.85 21.5776 159.215 22.6176Z" stroke="#68b0ab" stroke-width="5" />
	<path d="M310.438 6.01022C307.981 8.44964 308.583 11.5118 310.41 13.9662C315.285 20.1033 328.141 18.9242 335.478 20.7859C342.817 22.6476 349.542 24.5071 356.262 28.2026C345.817 39.7941 333.542 49.5433 320.659 58.6783C314.524 62.9409 319.385 72.7499 326.742 69.1036C344.522 59.9857 360.481 46.5775 373.387 31.3225C376.462 27.0502 375.867 22.1511 371.594 19.0772C361.825 12.311 350.821 8.60044 339.204 5.4988C331.863 4.24913 316.581 -0.69934 310.438 6.01022Z" stroke="#68b0ab" stroke-width="5" />
</svg>
