<svg id="idea" width="191" height="233" viewBox="0 0 191 233" fill="none" xmlns="http://www.w3.org/2000/svg">
	<g clip-path="url(#clip0)">
		<path d="M190.889 231.22H115.969V230.592H191L190.889 231.22Z" fill="#3F3D56" />
		<path d="M146.455 218.927H142.385V227.865H146.455V218.927Z" fill="#FBBEBE" />
		<path d="M178.139 219.225H174.07V228.162H178.139V219.225Z" fill="#FBBEBE" />
		<path d="M178.575 223.545L173.634 222.949L160.844 162.473L146.891 223.247L141.949 222.651C141.134 195.152 143.517 167.642 145.583 144.747L175.087 142.215C180.646 164.775 180.874 192.852 178.575 223.545Z" fill="#2F2E41" />
		<path d="M175.507 145.793C175.507 145.793 168.635 153.142 172.519 154.979C176.403 156.817 178.793 146.711 178.793 146.711L175.507 145.793Z" fill="#FBBEBE" />
		<path d="M140.334 146.389C140.334 146.389 133.462 153.738 137.346 155.575C141.231 157.412 143.621 147.307 143.621 147.307L140.334 146.389Z" fill="#FBBEBE" />
		<path d="M161.28 93.2084C165.775 93.2084 169.419 89.4737 169.419 84.8668C169.419 80.2599 165.775 76.5253 161.28 76.5253C156.784 76.5253 153.14 80.2599 153.14 84.8668C153.14 89.4737 156.784 93.2084 161.28 93.2084Z" fill="#FBBEBE" />
		<path d="M170.727 102.295L156.193 103.784C157.536 97.5861 157.862 91.7955 156.193 86.8033H166.366C165.814 90.9631 167.88 96.4334 170.727 102.295Z" fill="#FBBEBE" />
		<path d="M174.796 145.492C169.366 152.187 157.953 149.949 144.856 145.194C148.572 132.761 147.996 119.644 144.657 106.087C144.475 105.358 144.55 104.587 144.869 103.91C145.188 103.232 145.73 102.693 146.401 102.386L157.065 97.5281L161.134 98.4218L168.111 96.6343L178.014 98.7103C178.819 98.8793 179.538 99.3383 180.042 100.004C180.545 100.67 180.799 101.499 180.757 102.34C179.929 118.981 178.464 134.381 174.796 145.492Z" fill="#E6E6E6" />
		<path d="M177.703 150.854L175.087 146.386L180.029 127.319L177.412 98.7197C179.1 98.8927 180.69 99.6111 181.953 100.771C183.216 101.931 184.086 103.473 184.438 105.173L188.407 124.349C189.006 127.239 188.646 130.252 187.387 132.91L177.703 150.854Z" fill="#E6E6E6" />
		<path d="M143.693 147.577L137.734 148.62L141.534 110.498C141.571 108.596 142.154 106.747 143.21 105.182C144.266 103.617 145.748 102.406 147.472 101.699L149.362 126.872L143.693 147.577Z" fill="#E6E6E6" />
		<path d="M144.907 230.988L133.939 232.962C133.441 233.052 132.928 232.981 132.471 232.76C132.11 232.585 131.795 232.321 131.556 231.993C131.316 231.664 131.159 231.28 131.099 230.875C131.038 230.469 131.075 230.055 131.207 229.668C131.339 229.28 131.561 228.932 131.855 228.654L136.553 224.198L137.778 222.004C138.123 221.369 138.615 220.83 139.21 220.435C139.806 220.041 140.487 219.802 141.193 219.74C143.288 219.591 143.979 221.225 143.541 224.293C145.132 225.492 145.384 225.308 146.455 223.694L146.941 228.751C146.885 229.3 146.657 229.815 146.29 230.219C145.923 230.622 145.438 230.892 144.907 230.988Z" fill="#2F2E41" />
		<path d="M176.592 230.988L165.623 232.962C165.125 233.052 164.613 232.981 164.156 232.76C163.794 232.585 163.48 232.321 163.24 231.993C163.001 231.664 162.844 231.28 162.783 230.875C162.722 230.469 162.759 230.055 162.891 229.668C163.023 229.28 163.246 228.932 163.539 228.654L168.238 224.198L169.463 222.004C169.807 221.369 170.299 220.83 170.894 220.435C171.49 220.041 172.171 219.802 172.878 219.74C174.972 219.591 175.664 221.225 175.226 224.293C176.817 225.492 177.068 225.308 178.139 223.694L178.625 228.751C178.57 229.3 178.341 229.815 177.974 230.219C177.607 230.622 177.122 230.892 176.592 230.988Z" fill="#2F2E41" />
		<path d="M154.818 80.114C158.486 77.9629 162.16 79.3373 165.84 85.2067L166.592 91.459C172.115 86.0965 171.836 78.7785 165.642 75.8021C165.033 75.5095 164.443 75.1767 163.781 75.2943C162.471 74.5739 160.942 74.3928 159.507 74.788C158.071 75.1832 156.837 76.125 156.056 77.421C154.912 77.6241 153.271 79.9541 153.33 81.1428L154.818 80.114Z" fill="#2F2E41" />
		<path d="M165.494 86.6543C166.056 86.6543 166.512 86.0541 166.512 85.3137C166.512 84.5733 166.056 83.9731 165.494 83.9731C164.933 83.9731 164.477 84.5733 164.477 85.3137C164.477 86.0541 164.933 86.6543 165.494 86.6543Z" fill="#FBBEBE" />
		<path d="M44.0107 148.956H60.9478C60.9478 150.773 60.2434 152.516 58.9896 153.801C57.7358 155.086 56.0352 155.808 54.2621 155.808H50.6964C48.9232 155.808 47.2227 155.086 45.9689 153.801C44.7151 152.516 44.0107 150.773 44.0107 148.956H44.0107Z" fill="#3F3D56" />
		<path d="M64.9052 133.615V127.248C64.9052 119.553 73.0701 112.276 78.3666 107.084C85.8325 99.7691 89.757 89.942 89.757 78.4301C89.757 68.3159 85.8437 58.6144 78.8751 51.4527C71.9065 44.291 62.4514 40.2534 52.5827 40.2253C42.714 40.1971 33.2371 44.1807 26.2297 51.3026C19.2224 58.4245 15.2565 68.1035 15.2015 78.2175C15.2013 78.2884 15.2013 78.3592 15.2015 78.4301C15.2015 89.5307 19.2943 100.024 26.5919 107.084C31.86 112.18 40.0533 119.474 40.0533 127.248V133.615" fill="#68B0AB" />
		<path d="M64.9052 134.509C64.7907 134.509 64.6773 134.486 64.5715 134.441C64.4657 134.396 64.3696 134.33 64.2886 134.247C64.2076 134.164 64.1434 134.065 64.0996 133.957C64.0557 133.849 64.0332 133.732 64.0332 133.615V127.247C64.0332 119.762 71.2361 112.775 76.4955 107.673C76.9319 107.249 77.3563 106.838 77.7638 106.438C85.0394 99.3097 88.885 89.6248 88.885 78.4302C88.885 57.508 72.8937 41.1189 52.4793 41.1189C52.4451 41.1187 52.4107 41.1187 52.3765 41.1187C42.7693 41.1298 33.5572 45.0389 26.7544 51.9913C19.9515 58.9438 16.1113 68.374 16.0735 78.2201V78.4282C16.0735 89.3919 20.1254 99.5989 27.1905 106.434C27.5485 106.781 27.9202 107.137 28.3019 107.503C33.6292 112.615 40.9254 119.616 40.9254 127.247V133.615C40.9254 133.852 40.8335 134.079 40.67 134.247C40.5064 134.415 40.2846 134.509 40.0533 134.509C39.8221 134.509 39.6003 134.415 39.4367 134.247C39.2732 134.079 39.1813 133.852 39.1813 133.615V127.247C39.1813 120.391 32.2042 113.696 27.1099 108.808C26.7264 108.44 26.353 108.082 25.9933 107.734C18.5808 100.562 14.3294 89.8817 14.3294 78.4301V78.2157C14.3879 56.7527 31.4461 39.3312 52.374 39.3312C52.4112 39.3312 52.4447 39.3312 52.4817 39.3314C57.4988 39.3046 62.4713 40.2977 67.1114 42.2532C71.7516 44.2087 75.9674 47.0877 79.515 50.7237C83.0625 54.3597 85.8714 58.6806 87.7791 63.4363C89.6868 68.1921 90.6554 73.2883 90.629 78.4301C90.629 90.1246 86.5971 100.256 78.9692 107.73C78.5598 108.131 78.1331 108.545 77.6944 108.971C72.6651 113.85 65.7773 120.532 65.7773 127.247V133.615C65.7773 133.732 65.7547 133.849 65.7109 133.957C65.6671 134.065 65.6029 134.164 65.5219 134.247C65.4409 134.33 65.3448 134.396 65.239 134.441C65.1332 134.486 65.0198 134.509 64.9052 134.509Z" fill="#3F3D56" />
		<path d="M60.7632 145.977H44.1953C43.8098 145.977 43.4401 145.82 43.1676 145.541C42.895 145.261 42.7419 144.882 42.7419 144.487C42.7419 144.092 42.895 143.713 43.1676 143.434C43.4401 143.155 43.8098 142.998 44.1953 142.998H60.7632C61.1487 142.998 61.5183 143.155 61.7909 143.434C62.0635 143.713 62.2166 144.092 62.2166 144.487C62.2166 144.882 62.0635 145.261 61.7909 145.541C61.5183 145.82 61.1487 145.977 60.7632 145.977Z" fill="#6C63FF" />
		<path d="M13.9344 43.3181C13.583 43.3185 13.2435 43.1879 12.9792 42.9507L0.497599 31.7845C0.353615 31.6559 0.235764 31.4995 0.15079 31.3242C0.0658163 31.149 0.0153832 30.9582 0.00237094 30.763C-0.0106413 30.5677 0.01402 30.3717 0.0749528 30.1862C0.135885 30.0007 0.231892 29.8294 0.357482 29.6819C0.483073 29.5345 0.635786 29.4138 0.806892 29.3269C0.977998 29.24 1.16414 29.1885 1.35468 29.1753C1.54522 29.1622 1.73643 29.1876 1.91736 29.2502C2.0983 29.3129 2.26541 29.4114 2.40917 29.5403L14.8908 40.7064C15.1137 40.9059 15.2719 41.1703 15.3442 41.4643C15.4166 41.7584 15.3996 42.068 15.2957 42.3519C15.1917 42.6358 15.0057 42.8805 14.7624 43.0531C14.5192 43.2258 14.2303 43.3182 13.9344 43.3181H13.9344Z" fill="#E6E6E6" />
		<path d="M88.9532 43.3181C88.6573 43.3182 88.3685 43.2258 88.1252 43.0531C87.882 42.8805 87.6959 42.6358 87.592 42.3519C87.488 42.068 87.4711 41.7583 87.5434 41.4643C87.6158 41.1703 87.774 40.9059 87.9969 40.7064L100.478 29.5403C100.769 29.2809 101.148 29.1503 101.532 29.1772C101.916 29.2041 102.275 29.3863 102.528 29.6837C102.781 29.9812 102.909 30.3695 102.883 30.7634C102.857 31.1573 102.68 31.5246 102.39 31.7845L89.9084 42.9507C89.6441 43.1879 89.3046 43.3185 88.9532 43.3181Z" fill="#E6E6E6" />
		<path d="M64.9053 140.69H40.0534C39.6679 140.69 39.2982 140.533 39.0256 140.254C38.7531 139.974 38.5999 139.595 38.5999 139.2C38.5999 138.805 38.7531 138.426 39.0256 138.147C39.2982 137.868 39.6679 137.711 40.0534 137.711H64.9053C65.2907 137.711 65.6604 137.868 65.933 138.147C66.2055 138.426 66.3587 138.805 66.3587 139.2C66.3587 139.595 66.2055 139.974 65.933 140.254C65.6604 140.533 65.2907 140.69 64.9053 140.69Z" fill="#6C63FF" />
		<path d="M52.4793 135.104C52.2884 135.104 52.0994 135.066 51.9231 134.991C51.7468 134.916 51.5865 134.807 51.4516 134.668C51.3166 134.53 51.2095 134.366 51.1365 134.185C51.0635 134.004 51.0259 133.811 51.0259 133.615V99.655C51.0259 99.26 51.179 98.8811 51.4516 98.6018C51.7241 98.3224 52.0938 98.1655 52.4793 98.1655C52.8648 98.1655 53.2344 98.3224 53.507 98.6018C53.7796 98.8811 53.9327 99.26 53.9327 99.655V133.615C53.9327 133.811 53.8951 134.004 53.8221 134.185C53.749 134.366 53.642 134.53 53.507 134.668C53.372 134.807 53.2118 134.916 53.0355 134.991C52.8591 135.066 52.6701 135.104 52.4793 135.104Z" fill="white" />
		<path d="M52.4793 101.145C47.7833 101.145 42.0177 96.7906 41.7746 96.6052C41.6215 96.4885 41.4923 96.3419 41.3944 96.174C41.2965 96.0061 41.2318 95.82 41.2041 95.6265C41.1764 95.433 41.1861 95.2357 41.2327 95.046C41.2794 94.8564 41.362 94.678 41.476 94.521C41.5899 94.3641 41.7329 94.2316 41.8967 94.1313C42.0606 94.031 42.2421 93.9647 42.4309 93.9363C42.6198 93.9079 42.8122 93.9179 42.9973 93.9657C43.1824 94.0135 43.3565 94.0982 43.5096 94.215C44.9541 95.3134 49.3829 98.1655 52.4793 98.1655C55.5758 98.1655 60.0045 95.3134 61.4497 94.2144C61.6029 94.0977 61.777 94.013 61.9621 93.9653C62.1472 93.9175 62.3396 93.9076 62.5285 93.9361C62.7173 93.9646 62.8988 94.0309 63.0627 94.1313C63.2265 94.2316 63.3694 94.3641 63.4833 94.5211C63.5972 94.6781 63.6798 94.8565 63.7263 95.0462C63.7729 95.2359 63.7826 95.4331 63.7548 95.6267C63.727 95.8202 63.6623 96.0062 63.5644 96.1741C63.4664 96.342 63.3372 96.4885 63.184 96.6052C62.9409 96.7906 57.1754 101.145 52.4793 101.145Z" fill="white" />
		<path d="M52.4792 28.4491C52.0937 28.4491 51.724 28.2922 51.4515 28.0128C51.1789 27.7335 51.0258 27.3546 51.0257 26.9596V1.48956C51.0257 1.0945 51.1789 0.715629 51.4514 0.436282C51.724 0.156935 52.0937 0 52.4792 0C52.8646 0 53.2343 0.156935 53.5069 0.436282C53.7794 0.715629 53.9326 1.0945 53.9326 1.48956V26.9596C53.9325 27.3546 53.7794 27.7335 53.5068 28.0128C53.2343 28.2922 52.8646 28.4491 52.4792 28.4491Z" fill="#E6E6E6" />
	</g>
	<defs>
		<clipPath id="clip0">
			<rect width="191" height="233" fill="white" />
		</clipPath>
	</defs>
</svg>

