<svg width="337" height="234" viewBox="0 0 337 234" fill="none" xmlns="http://www.w3.org/2000/svg">
<g clip-path="url(#clip0)">
<path d="M188.864 7.79779H138.016V8.52316H188.864V7.79779Z" fill="#F2F2F2"/>
<path d="M234.628 176.81H233.901V183.52H234.628V176.81Z" fill="#F2F2F2"/>
<path d="M237.17 66.1904H236.444V72.9001H237.17V66.1904Z" fill="#F2F2F2"/>
<path d="M87.8939 93.7546H87.1675V100.464H87.8939V93.7546Z" fill="#F2F2F2"/>
<path d="M317.075 143.805H266.226V144.531H317.075V143.805Z" fill="#F2F2F2"/>
<path d="M280.754 137.277H280.028V143.987H280.754V137.277Z" fill="#F2F2F2"/>
<path d="M302.91 137.277H302.183V143.987H302.91V137.277Z" fill="#F2F2F2"/>
<path d="M302.183 97.3815H251.335V98.1068H302.183V97.3815Z" fill="#F2F2F2"/>
<path d="M288.382 97.9255H287.655V104.635H288.382V97.9255Z" fill="#F2F2F2"/>
<path d="M266.226 97.9255H265.5V104.635H266.226V97.9255Z" fill="#F2F2F2"/>
<path d="M84.8067 62.7448V233.57H243.163V62.7448H84.8067ZM163.985 75.0762C162.907 75.0762 161.854 74.7571 160.958 74.1593C160.062 73.5616 159.364 72.7119 158.952 71.7178C158.539 70.7237 158.431 69.6299 158.642 68.5746C158.852 67.5192 159.371 66.5499 160.133 65.789C160.894 65.0282 161.865 64.51 162.922 64.3001C163.979 64.0902 165.074 64.1979 166.07 64.6097C167.065 65.0215 167.916 65.7188 168.515 66.6134C169.113 67.5081 169.433 68.5599 169.433 69.6359C169.433 71.0788 168.859 72.4625 167.837 73.4828C166.816 74.503 165.43 75.0762 163.985 75.0762Z" fill="#3F3D56"/>
<path d="M336.143 233.208H5.99176V233.933H336.143V233.208Z" fill="#3F3D56"/>
<path d="M185.595 98.4695H102.422C101.748 98.4695 101.101 98.202 100.624 97.7259C100.147 97.2498 99.8796 96.604 99.8796 95.9307C99.8796 95.2574 100.147 94.6116 100.624 94.1355C101.101 93.6594 101.748 93.3919 102.422 93.3919H185.595C186.27 93.3919 186.916 93.6594 187.393 94.1355C187.87 94.6116 188.138 95.2574 188.138 95.9307C188.138 96.604 187.87 97.2498 187.393 97.7259C186.916 98.202 186.27 98.4695 185.595 98.4695Z" fill="#F2F2F2"/>
<path d="M185.595 124.583H102.422C101.748 124.583 101.101 124.316 100.624 123.839C100.147 123.363 99.8796 122.718 99.8796 122.044C99.8796 121.371 100.147 120.725 100.624 120.249C101.101 119.773 101.748 119.505 102.422 119.505H185.595C186.27 119.505 186.916 119.773 187.393 120.249C187.87 120.725 188.138 121.371 188.138 122.044C188.138 122.718 187.87 123.363 187.393 123.839C186.916 124.316 186.27 124.583 185.595 124.583Z" fill="#F2F2F2"/>
<path d="M185.595 150.696H102.422C101.748 150.696 101.101 150.429 100.624 149.953C100.147 149.477 99.8796 148.831 99.8796 148.158C99.8796 147.484 100.147 146.839 100.624 146.362C101.101 145.886 101.748 145.619 102.422 145.619H185.595C186.27 145.619 186.916 145.886 187.393 146.362C187.87 146.839 188.138 147.484 188.138 148.158C188.138 148.831 187.87 149.477 187.393 149.953C186.916 150.429 186.27 150.696 185.595 150.696Z" fill="#F2F2F2"/>
<path d="M185.595 176.81H102.422C101.748 176.81 101.101 176.542 100.624 176.066C100.147 175.59 99.8796 174.944 99.8796 174.271C99.8796 173.598 100.147 172.952 100.624 172.476C101.101 172 101.748 171.732 102.422 171.732H185.595C186.27 171.732 186.916 172 187.393 172.476C187.87 172.952 188.138 173.598 188.138 174.271C188.138 174.944 187.87 175.59 187.393 176.066C186.916 176.542 186.27 176.81 185.595 176.81Z" fill="#F2F2F2"/>
<path d="M185.595 202.923H102.422C101.748 202.923 101.101 202.656 100.624 202.18C100.147 201.704 99.8796 201.058 99.8796 200.385C99.8796 199.711 100.147 199.065 100.624 198.589C101.101 198.113 101.748 197.846 102.422 197.846H185.595C186.27 197.846 186.916 198.113 187.393 198.589C187.87 199.065 188.138 199.711 188.138 200.385C188.138 201.058 187.87 201.704 187.393 202.18C186.916 202.656 186.27 202.923 185.595 202.923Z" fill="#F2F2F2"/>
<path d="M171.067 98.4695H102.059C101.385 98.4695 100.738 98.202 100.261 97.7259C99.7843 97.2498 99.5164 96.604 99.5164 95.9307C99.5164 95.2574 99.7843 94.6116 100.261 94.1355C100.738 93.6594 101.385 93.3919 102.059 93.3919H171.067C171.742 93.3919 172.388 93.6594 172.865 94.1355C173.342 94.6116 173.61 95.2574 173.61 95.9307C173.61 96.604 173.342 97.2498 172.865 97.7259C172.388 98.202 171.742 98.4695 171.067 98.4695Z" fill="#8FC0A9"/>
<path d="M149.638 124.583H102.059C101.385 124.583 100.738 124.316 100.261 123.839C99.7843 123.363 99.5164 122.718 99.5164 122.044C99.5164 121.371 99.7843 120.725 100.261 120.249C100.738 119.773 101.385 119.505 102.059 119.505H149.638C150.313 119.505 150.959 119.773 151.436 120.249C151.913 120.725 152.181 121.371 152.181 122.044C152.181 122.718 151.913 123.363 151.436 123.839C150.959 124.316 150.313 124.583 149.638 124.583Z" fill="#8FC0A9"/>
<path d="M123.488 150.696H102.059C101.385 150.696 100.738 150.429 100.261 149.953C99.7843 149.477 99.5164 148.831 99.5164 148.158C99.5164 147.484 99.7843 146.839 100.261 146.362C100.738 145.886 101.385 145.619 102.059 145.619H123.488C124.162 145.619 124.809 145.886 125.286 146.362C125.762 146.839 126.03 147.484 126.03 148.158C126.03 148.831 125.762 149.477 125.286 149.953C124.809 150.429 124.162 150.696 123.488 150.696Z" fill="#8FC0A9"/>
<path d="M177.605 176.81H102.059C101.385 176.81 100.738 176.542 100.261 176.066C99.7843 175.59 99.5164 174.944 99.5164 174.271C99.5164 173.598 99.7843 172.952 100.261 172.476C100.738 172 101.385 171.732 102.059 171.732H177.605C178.279 171.732 178.926 172 179.403 172.476C179.88 172.952 180.147 173.598 180.147 174.271C180.147 174.944 179.88 175.59 179.403 176.066C178.926 176.542 178.279 176.81 177.605 176.81Z" fill="#8FC0A9"/>
<path d="M160.898 202.923H102.059C101.385 202.923 100.738 202.656 100.261 202.18C99.7843 201.704 99.5164 201.058 99.5164 200.385C99.5164 199.711 99.7843 199.065 100.261 198.589C100.738 198.113 101.385 197.846 102.059 197.846H160.898C161.572 197.846 162.219 198.113 162.695 198.589C163.172 199.065 163.44 199.711 163.44 200.385C163.44 201.058 163.172 201.704 162.695 202.18C162.219 202.656 161.572 202.923 160.898 202.923Z" fill="#8FC0A9"/>
<path d="M220.1 93.3919H219.373V98.4695H220.1V93.3919Z" fill="#8FC0A9"/>
<path d="M225.548 98.8322C224.973 98.8322 224.411 98.662 223.933 98.3432C223.456 98.0244 223.083 97.5713 222.863 97.0411C222.643 96.5109 222.586 95.9275 222.698 95.3647C222.81 94.8018 223.087 94.2848 223.493 93.879C223.899 93.4733 224.417 93.1969 224.981 93.085C225.544 92.973 226.129 93.0305 226.66 93.2501C227.191 93.4697 227.644 93.8416 227.964 94.3187C228.283 94.7959 228.453 95.3568 228.453 95.9307C228.452 96.7 228.146 97.4375 227.601 97.9814C227.057 98.5254 226.318 98.8313 225.548 98.8322ZM225.548 93.7546C225.117 93.7546 224.695 93.8822 224.337 94.1213C223.979 94.3604 223.699 94.7003 223.534 95.0979C223.369 95.4956 223.326 95.9331 223.41 96.3553C223.494 96.7774 223.702 97.1651 224.007 97.4695C224.311 97.7738 224.7 97.9811 225.123 98.065C225.545 98.149 225.983 98.1059 226.382 97.9412C226.78 97.7765 227.12 97.4976 227.36 97.1397C227.599 96.7818 227.727 96.3611 227.727 95.9307C227.726 95.3538 227.496 94.8006 227.088 94.3926C226.679 93.9847 226.125 93.7552 225.548 93.7546Z" fill="#8FC0A9"/>
<path d="M220.1 119.505H219.373V124.583H220.1V119.505Z" fill="#8FC0A9"/>
<path d="M225.548 124.946C224.973 124.946 224.411 124.775 223.933 124.457C223.456 124.138 223.083 123.685 222.863 123.155C222.643 122.624 222.586 122.041 222.698 121.478C222.81 120.915 223.087 120.398 223.493 119.993C223.899 119.587 224.417 119.31 224.981 119.198C225.544 119.086 226.129 119.144 226.66 119.364C227.191 119.583 227.644 119.955 227.964 120.432C228.283 120.909 228.453 121.47 228.453 122.044C228.452 122.813 228.146 123.551 227.601 124.095C227.057 124.639 226.318 124.945 225.548 124.946ZM225.548 119.868C225.117 119.868 224.695 119.996 224.337 120.235C223.979 120.474 223.699 120.814 223.534 121.211C223.369 121.609 223.326 122.047 223.41 122.469C223.494 122.891 223.702 123.279 224.007 123.583C224.311 123.887 224.7 124.095 225.123 124.178C225.545 124.262 225.983 124.219 226.382 124.055C226.78 123.89 227.12 123.611 227.36 123.253C227.599 122.895 227.727 122.475 227.727 122.044C227.726 121.467 227.496 120.914 227.088 120.506C226.679 120.098 226.125 119.869 225.548 119.868Z" fill="#8FC0A9"/>
<path d="M220.1 145.619H219.373V150.696H220.1V145.619Z" fill="#8FC0A9"/>
<path d="M225.548 151.059C224.973 151.059 224.411 150.889 223.933 150.57C223.456 150.251 223.083 149.798 222.863 149.268C222.643 148.738 222.586 148.154 222.698 147.592C222.81 147.029 223.087 146.512 223.493 146.106C223.899 145.7 224.417 145.424 224.981 145.312C225.544 145.2 226.129 145.257 226.66 145.477C227.191 145.697 227.644 146.069 227.964 146.546C228.283 147.023 228.453 147.584 228.453 148.158C228.452 148.927 228.146 149.664 227.601 150.208C227.057 150.752 226.318 151.058 225.548 151.059ZM225.548 145.982C225.117 145.982 224.695 146.109 224.337 146.348C223.979 146.587 223.699 146.927 223.534 147.325C223.369 147.723 223.326 148.16 223.41 148.582C223.494 149.004 223.702 149.392 224.007 149.696C224.311 150.001 224.7 150.208 225.123 150.292C225.545 150.376 225.983 150.333 226.382 150.168C226.78 150.003 227.12 149.725 227.36 149.367C227.599 149.009 227.727 148.588 227.727 148.158C227.726 147.581 227.496 147.028 227.088 146.62C226.679 146.212 226.125 145.982 225.548 145.982Z" fill="#8FC0A9"/>
<path d="M220.1 171.732H219.373V176.81H220.1V171.732Z" fill="#8FC0A9"/>
<path d="M225.548 177.173C224.973 177.173 224.411 177.002 223.933 176.684C223.456 176.365 223.083 175.912 222.863 175.381C222.643 174.851 222.586 174.268 222.698 173.705C222.81 173.142 223.087 172.625 223.493 172.219C223.899 171.814 224.417 171.537 224.981 171.425C225.544 171.313 226.129 171.371 226.66 171.59C227.191 171.81 227.644 172.182 227.964 172.659C228.283 173.136 228.453 173.697 228.453 174.271C228.452 175.04 228.146 175.778 227.601 176.322C227.057 176.866 226.318 177.172 225.548 177.173ZM225.548 172.095C225.117 172.095 224.695 172.223 224.337 172.462C223.979 172.701 223.699 173.041 223.534 173.438C223.369 173.836 223.326 174.274 223.41 174.696C223.494 175.118 223.702 175.506 224.007 175.81C224.311 176.114 224.7 176.321 225.123 176.405C225.545 176.489 225.983 176.446 226.382 176.282C226.78 176.117 227.12 175.838 227.36 175.48C227.599 175.122 227.727 174.702 227.727 174.271C227.726 173.694 227.496 173.141 227.088 172.733C226.679 172.325 226.125 172.096 225.548 172.095Z" fill="#8FC0A9"/>
<path d="M220.1 197.846H219.373V202.923H220.1V197.846Z" fill="#8FC0A9"/>
<path d="M225.548 203.286C224.973 203.286 224.411 203.116 223.933 202.797C223.456 202.478 223.083 202.025 222.863 201.495C222.643 200.965 222.586 200.381 222.698 199.818C222.81 199.256 223.087 198.739 223.493 198.333C223.899 197.927 224.417 197.651 224.981 197.539C225.544 197.427 226.129 197.484 226.66 197.704C227.191 197.923 227.644 198.295 227.964 198.773C228.283 199.25 228.453 199.811 228.453 200.385C228.452 201.154 228.146 201.891 227.601 202.435C227.057 202.979 226.318 203.285 225.548 203.286ZM225.548 198.208C225.117 198.208 224.695 198.336 224.337 198.575C223.979 198.814 223.699 199.154 223.534 199.552C223.369 199.949 223.326 200.387 223.41 200.809C223.494 201.231 223.702 201.619 224.007 201.923C224.311 202.228 224.7 202.435 225.123 202.519C225.545 202.603 225.983 202.56 226.382 202.395C226.78 202.23 227.12 201.951 227.36 201.594C227.599 201.236 227.727 200.815 227.727 200.385C227.726 199.808 227.496 199.254 227.088 198.846C226.679 198.438 226.125 198.209 225.548 198.208Z" fill="#8FC0A9"/>
<path d="M225.548 97.3815C226.35 97.3815 227 96.732 227 95.9307C227 95.1295 226.35 94.48 225.548 94.48C224.745 94.48 224.095 95.1295 224.095 95.9307C224.095 96.732 224.745 97.3815 225.548 97.3815Z" fill="#8FC0A9"/>
<path d="M225.548 175.722C226.35 175.722 227 175.072 227 174.271C227 173.47 226.35 172.82 225.548 172.82C224.745 172.82 224.095 173.47 224.095 174.271C224.095 175.072 224.745 175.722 225.548 175.722Z" fill="#8FC0A9"/>
<path d="M225.548 201.835C226.35 201.835 227 201.186 227 200.385C227 199.583 226.35 198.934 225.548 198.934C224.745 198.934 224.095 199.583 224.095 200.385C224.095 201.186 224.745 201.835 225.548 201.835Z" fill="#8FC0A9"/>
<path d="M311.124 139.446V148.431C311.124 148.431 313.29 162.908 313.29 175.554C313.29 188.2 309.791 217.653 309.791 217.653C309.791 217.653 302.792 220.149 302.293 216.322C301.793 212.495 300.46 192.194 300.46 189.199C300.46 186.204 294.627 163.407 294.627 163.407L290.961 188.7C290.961 188.7 292.128 218.651 290.961 219.483C289.795 220.315 284.129 221.813 283.463 220.315C282.796 218.818 279.297 186.703 279.297 186.703C279.297 186.703 276.464 144.77 278.13 142.274C279.797 139.778 281.297 137.782 281.297 137.782C281.297 137.782 305.125 131.958 311.124 139.446Z" fill="#2F2E41"/>
<path d="M308.958 216.654L309.376 219.367C309.516 220.292 309.607 221.224 309.649 222.159C309.714 223.522 309.941 225.621 310.719 225.954C311.885 226.453 319.456 232.829 314.124 233.162C308.791 233.495 306.124 234.07 304.544 232.845C302.677 231.397 304.792 232.053 303.959 232.053C303.126 232.053 302.126 232.053 301.793 230.722C301.459 229.39 302.293 227.061 302.293 227.061V216.654H308.958Z" fill="#2F2E41"/>
<path d="M284.077 216.524L283.659 219.237C283.519 220.162 283.428 221.094 283.386 222.029C283.321 223.391 283.094 225.491 282.316 225.824C281.15 226.323 273.579 232.699 278.911 233.031C284.244 233.364 286.911 233.939 288.491 232.715C290.358 231.267 288.243 231.922 289.076 231.922C289.909 231.922 290.909 231.922 291.242 230.591C291.576 229.26 290.743 226.93 290.743 226.93V216.524H284.077Z" fill="#2F2E41"/>
<path d="M288.795 67.2285C288.795 67.2285 291.628 74.2173 293.628 75.3821C295.627 76.5469 294.627 81.8716 294.627 81.8716L289.628 88.8604H285.629L280.797 80.5404C280.797 80.5404 280.463 75.0493 279.464 73.7181C278.464 72.3869 288.795 67.2285 288.795 67.2285Z" fill="#FFB9B9"/>
<path opacity="0.1" d="M288.795 67.2285C288.795 67.2285 291.628 74.2173 293.628 75.3821C295.627 76.5469 294.627 81.8716 294.627 81.8716L289.628 88.8604H285.629L280.797 80.5404C280.797 80.5404 280.463 75.0493 279.464 73.7181C278.464 72.3869 288.795 67.2285 288.795 67.2285Z" fill="black"/>
<path d="M292.961 81.5388L300.46 83.2028L305.958 138.447C305.958 138.447 302.959 138.946 299.96 142.94C296.96 146.933 293.294 146.268 291.461 145.27C289.628 144.271 282.296 141.442 282.13 140.278C281.963 139.113 282.463 118.646 282.463 118.646L277.797 86.6972L280.13 83.2028H284.296L287.629 86.0316L292.961 81.5388Z" fill="#8FC0A9"/>
<path d="M281.63 75.8813C286.415 75.8813 290.295 72.0073 290.295 67.2285C290.295 62.4498 286.415 58.5758 281.63 58.5758C276.844 58.5758 272.965 62.4498 272.965 67.2285C272.965 72.0073 276.844 75.8813 281.63 75.8813Z" fill="#FFB9B9"/>
<path d="M294.127 78.7101C294.127 78.7101 310.458 80.374 311.957 83.8684C313.457 87.3628 310.958 102.838 310.958 102.838C310.958 102.838 316.956 116.316 316.79 119.478C316.623 122.639 322.455 144.271 316.123 141.775C309.791 139.279 311.791 132.79 308.625 137.449C305.459 142.108 304.126 141.442 304.126 141.442C304.126 141.442 300.959 146.601 299.96 146.101C298.96 145.602 298.293 141.775 300.46 139.945C302.626 138.114 302.293 134.953 298.127 128.962C293.961 122.972 289.628 91.5227 292.128 86.6972C294.627 81.8716 294.127 78.7101 294.127 78.7101Z" fill="#575A89"/>
<path d="M311.124 142.607L308.291 145.27L304.792 142.94L306.292 139.446L311.124 142.607Z" fill="#FFB9B9"/>
<path d="M282.13 81.5388C282.13 81.5388 269.465 86.198 269.465 91.1899C269.465 96.1819 277.131 117.98 277.131 117.98C277.131 117.98 277.131 123.638 276.797 124.969C276.464 126.3 271.221 137.91 275.798 138.946C278.654 139.593 281.001 141.291 281.213 143.689C281.465 146.535 279.283 150.128 279.464 150.761C279.797 151.925 281.796 153.589 281.63 152.757C281.463 151.925 282.963 139.945 285.296 134.62C287.629 129.295 284.296 93.5195 283.629 88.8604C283.308 86.3868 282.806 83.9398 282.13 81.5388Z" fill="#575A89"/>
<path d="M275.464 142.274L278.464 149.43L280.713 144.854L278.13 139.113L275.464 142.274Z" fill="#FFB9B9"/>
<path d="M291.392 72.5893C291.392 72.5893 294.127 73.7181 295.794 73.7181C297.46 73.7181 304.292 77.2125 301.959 79.3756C299.626 81.5388 296.127 82.038 294.461 85.1996C292.794 88.3612 291.961 88.8604 291.961 88.8604L288.994 84.8808C288.994 84.8808 293.128 80.2076 292.961 78.71C292.794 77.2125 291.392 72.5893 291.392 72.5893Z" fill="#8FC0A9"/>
<path d="M280.347 76.5901C280.347 76.5901 278.297 77.3789 277.797 78.7101C277.297 80.0413 274.131 82.5372 275.464 83.2028C276.797 83.8684 282.63 86.5308 283.796 87.03C284.962 87.5292 287.136 85.6137 287.136 85.6137C287.136 85.6137 284.213 83.9516 284.213 82.7868C284.213 81.622 280.347 76.5901 280.347 76.5901Z" fill="#8FC0A9"/>
<path d="M273.465 88.8604L269.465 89.8587C269.465 89.8587 263.966 114.486 265.633 120.642C267.299 126.799 275.131 145.269 275.131 145.269L280.13 139.446C280.13 139.446 277.95 126.202 276.707 125.336C275.464 124.47 276.298 122.639 276.298 122.14C276.298 121.641 276.797 121.974 275.631 120.809C274.465 119.644 279.964 113.155 278.464 111.324C276.964 109.494 273.465 88.8604 273.465 88.8604Z" fill="#575A89"/>
<path opacity="0.1" d="M312.874 93.4363L310.458 84.3676C310.458 84.3676 316.956 89.0267 318.29 95.8491C319.623 102.671 324.788 116.316 321.456 122.306C318.123 128.297 312.291 145.602 310.291 145.269C308.291 144.937 303.459 140.777 303.292 140.111C303.126 139.446 311.957 124.137 310.624 122.972C309.291 121.807 309.625 118.812 310.624 118.147C311.624 117.481 312.791 114.319 311.957 114.486C311.124 114.652 308.625 112.988 309.125 111.158C309.625 109.327 306.625 97.0139 306.625 97.0139L312.874 93.4363Z" fill="black"/>
<path d="M309.624 83.2028L311.957 83.8684C311.957 83.8684 318.456 88.5276 319.789 95.3499C321.122 102.172 326.288 115.817 322.955 121.807C319.623 127.798 313.79 145.103 311.791 144.77C309.791 144.438 304.959 140.278 304.792 139.612C304.625 138.946 313.457 123.638 312.124 122.473C310.791 121.308 311.124 118.313 312.124 117.647C313.124 116.982 314.29 113.82 313.457 113.987C312.624 114.153 310.124 112.489 310.624 110.659C311.124 108.828 308.125 96.5147 308.125 96.5147L309.624 83.2028Z" fill="#575A89"/>
<path d="M288.354 59.4181L289.979 58.8279C289.979 58.8279 286.581 55.4346 281.853 55.7297L283.183 54.4019C283.183 54.4019 279.933 53.2217 276.978 56.3199C275.424 57.9485 273.627 59.8629 272.507 62.0195H270.766L271.493 63.4702L268.95 64.921L271.56 64.6604C271.313 65.9129 271.398 67.2082 271.807 68.4177L272.398 70.0405C272.398 70.0405 274.762 65.3194 274.762 64.7293V66.2046C274.762 66.2046 276.387 64.8768 276.387 63.9916L277.273 65.0244L277.717 63.4015L283.183 65.0244L282.297 63.6966L285.695 64.1392L284.365 62.5163C284.365 62.5163 288.206 64.4342 288.354 66.0571C288.502 67.68 290.422 69.7455 290.422 69.7455L291.309 68.2701C291.309 68.2701 292.639 61.6311 288.354 59.4181Z" fill="#2F2E41"/>
<path d="M288.019 68.1852C288.721 68.1852 289.29 67.2921 289.29 66.1904C289.29 65.0887 288.721 64.1956 288.019 64.1956C287.316 64.1956 286.747 65.0887 286.747 66.1904C286.747 67.2921 287.316 68.1852 288.019 68.1852Z" fill="#FFB9B9"/>
</g>
<defs>
<clipPath id="clip0">
<rect width="336.143" height="234" fill="white"/>
</clipPath>
</defs>
</svg>
