<svg  viewBox="0 0 242 209" fill="none" xmlns="http://www.w3.org/2000/svg">
	<g clip-path="url(#clip0)">
		<path d="M26.2854 208.16C40.7528 208.16 52.4809 205.299 52.4809 201.771C52.4809 198.242 40.7528 195.381 26.2854 195.381C11.8181 195.381 0.0899963 198.242 0.0899963 201.771C0.0899963 205.299 11.8181 208.16 26.2854 208.16Z" fill="#E6E6E6" />
		<path d="M14.9751 55.813C19.9627 55.813 24.0059 51.3643 24.0059 45.8766C24.0059 40.3888 19.9627 35.9401 14.9751 35.9401C9.98753 35.9401 5.94431 40.3888 5.94431 45.8766C5.94431 51.3643 9.98753 55.813 14.9751 55.813Z" fill="#2F2E41" />
		<path d="M41.2673 107.778L43.5536 111.538C43.5536 111.538 54.5277 114.223 50.4124 118.252C46.2971 122.28 40.3528 114.492 40.3528 114.492L37.152 109.658L41.2673 107.778Z" fill="#FFB8B8" />
		<path d="M29.3786 65.0781C29.3786 65.0781 32.3508 65.0781 33.0367 69.9121C33.7226 74.746 34.4084 90.8593 34.4084 90.8593C34.4084 90.8593 44.0108 105.63 42.4104 107.51C40.81 109.389 38.981 112.881 37.8379 112.344C36.6947 111.806 26.8637 95.9618 26.8637 95.9618L29.3786 65.0781Z" fill="#E6E6E6" />
		<path d="M20.2335 51.3819C20.2335 51.3819 20.4621 61.8555 23.2057 62.3926C25.9492 62.9297 25.0347 66.4209 25.0347 66.4209C25.0347 66.4209 16.1182 72.5976 10.1739 66.4209L9.03076 63.1983C9.03076 63.1983 13.1461 59.7071 11.317 54.8731L20.2335 51.3819Z" fill="#FFB8B8" />
		<path id="in" d="M35.5516 115.835C35.5516 115.835 49.0406 145.376 44.0108 154.506C38.981 163.637 31.4363 182.436 30.2931 182.436C29.15 182.436 22.7484 178.676 23.2057 176.259C23.6629 173.842 30.5218 155.849 32.3508 154.238C34.1798 152.627 33.2653 148.33 33.0367 148.061C32.808 147.793 25.2633 133.559 25.2633 133.559C25.2633 133.559 25.492 156.118 24.5775 159.609C23.6629 163.1 24.8061 188.076 23.6629 189.15C22.5198 190.224 17.2614 192.104 16.3469 190.493C15.4323 188.881 12.6888 164.443 14.5178 158.803L11.0884 120.132L35.5516 115.835Z" fill="#2F2E41" />
		<path d="M23.2057 187.538L28.9214 199.892C28.9214 199.892 37.152 206.874 31.4363 207.949C25.7206 209.023 22.2912 206.337 22.2912 206.337L17.2614 202.04V189.687L23.2057 187.538Z" fill="#2F2E41" />
		<path d="M30.979 180.556L28.0069 188.881C28.0069 188.881 26.8637 192.372 28.0069 193.178C29.15 193.984 32.3508 198.818 30.2932 199.355C29.8792 199.45 29.4586 199.499 29.0368 199.501C27.3234 199.535 25.6218 199.162 24.0346 198.403C22.4473 197.644 21.0071 196.516 19.8007 195.087L17.9473 192.909C17.9473 192.909 24.2963 175.736 24.2082 175.863C24.1202 175.991 30.979 180.556 30.979 180.556Z" fill="#2F2E41" />
		<path d="M14.5179 57.8272C18.811 57.8272 22.2912 53.7392 22.2912 48.6964C22.2912 43.6535 18.811 39.5655 14.5179 39.5655C10.2248 39.5655 6.74454 43.6535 6.74454 48.6964C6.74454 53.7392 10.2248 57.8272 14.5179 57.8272Z" fill="#FFB8B8" />
		<path d="M10.0596 61.4527L12.4602 64.2725C12.4602 64.2725 19.7763 67.4951 23.2057 64.2725C23.2057 64.2725 21.9482 61.1841 21.9482 61.4527C21.9482 61.7212 31.8935 63.4668 32.808 68.3008C33.7225 73.1347 32.1222 81.4599 32.1222 81.4599C32.1222 81.4599 38.5237 116.909 36.0088 117.715C33.4939 118.52 9.94528 125.234 10.1739 120.132C10.4025 115.029 8.34489 94.0819 8.34489 94.0819L0.342926 76.0888C0.342926 76.0888 1.48606 70.1806 4.22959 68.3008C6.97312 66.4209 10.0596 61.4527 10.0596 61.4527Z" fill="#E6E6E6" />
		<path d="M20.2335 113.955L23.2057 116.103C23.2057 116.103 34.6371 125.234 28.6927 126.845C22.7484 128.457 19.319 120.4 19.319 120.4L17.0327 117.177L20.2335 113.955Z" fill="#FFB8B8" />
		<path opacity="0.1" d="M3.31511 74.4775L1.25746 76.8945C1.25746 76.8945 -0.114303 99.453 2.62923 104.018C5.37276 108.584 17.9473 120.937 18.6332 120.132C19.319 119.326 23.663 115.298 22.7485 114.76C21.8339 114.223 9.67488 99.3 9.67488 99.3L10.6312 78.5058L3.31511 74.4775Z" fill="black" />
		<path d="M2.40059 73.6718L0.342942 76.0888C0.342942 76.0888 -1.02882 98.6473 1.71471 103.213C4.45824 107.778 17.0328 120.132 17.7186 119.326C18.4045 118.52 22.7484 114.492 21.8339 113.955C20.9194 113.418 8.76036 98.4944 8.76036 98.4944L9.71667 77.7001L2.40059 73.6718Z" fill="#E6E6E6" />
		<path d="M17.7327 35.7266C17.7327 35.7266 20.3751 34.5979 23.9783 36.9963L22.0566 37.5607C22.0566 37.5607 24.9392 37.8428 25.2995 42.3575H23.9783C23.9783 42.3575 24.8191 46.3078 23.9783 47.4364L23.4378 46.2372L21.8764 49.9054L21.5161 48.0713L20.7955 48.3535L20.315 45.3908C20.315 45.3908 19.1139 47.507 18.1531 47.6481V45.814C18.1531 45.814 15.5107 49.3411 14.67 49.2L15.8711 47.2248L14.1895 47.6481L14.9102 46.2372L10.5863 47.6481L11.5472 46.2372L8.5445 47.3659L7.10321 48.0713C7.10321 48.0713 5.06137 42.5691 7.94396 38.7599C10.8265 34.9507 15.0303 34.1042 17.7327 35.7266Z" fill="#2F2E41" />
		<path d="M235.381 22.0331H60.3267V153.724H235.381V22.0331Z" fill="#E6E6E6" />
		<path d="M230.376 38.5505H65.3324V145.933H230.376V38.5505Z" fill="white" />
		<path d="M235.307 21.9165H60.252V30.6522H235.307V21.9165Z" fill="#68B0AB" />
		<path d="M65.7785 28.0018C66.5398 28.0018 67.1569 27.2769 67.1569 26.3827C67.1569 25.4885 66.5398 24.7636 65.7785 24.7636C65.0173 24.7636 64.4001 25.4885 64.4001 26.3827C64.4001 27.2769 65.0173 28.0018 65.7785 28.0018Z" fill="white" />
		<path d="M71.0105 28.0018C71.7718 28.0018 72.3889 27.2769 72.3889 26.3827C72.3889 25.4885 71.7718 24.7636 71.0105 24.7636C70.2493 24.7636 69.6321 25.4885 69.6321 26.3827C69.6321 27.2769 70.2493 28.0018 71.0105 28.0018Z" fill="white" />
		<path d="M76.2426 28.0018C77.0038 28.0018 77.6209 27.2769 77.6209 26.3827C77.6209 25.4885 77.0038 24.7636 76.2426 24.7636C75.4813 24.7636 74.8642 25.4885 74.8642 26.3827C74.8642 27.2769 75.4813 28.0018 76.2426 28.0018Z" fill="white" />
		<path d="M122.737 49.6923H80.3288V134.792H122.737V49.6923Z" fill="#E6E6E6" />
		<path d="M165.398 49.6923H130.058V73.1169H165.398V49.6923Z" fill="#8FC0A9" />
		<path d="M165.398 79.6402H130.058V104.844H165.398V79.6402Z" fill="#E6E6E6" />
		<path d="M165.398 111.367H130.058V134.792H165.398V111.367Z" fill="#E6E6E6" />
		<path d="M215.379 49.6923H172.971V86.7781H215.379V49.6923Z" fill="#E6E6E6" />
		<path d="M215.379 97.7059H172.971V134.792H215.379V97.7059Z" fill="#8FC0A9" />
	</g>
	<defs>
		<clipPath id="clip0">
			<rect width="241.432" height="208.202" fill="white" />
		</clipPath>
	</defs>
</svg>
